<?xml version="1.0" encoding="UTF-8" standalone="no"?>
<!-- Created with Inkscape (http://www.inkscape.org/) -->

<svg
   version="1.1"
   id="svg2"
   width="638.15558"
   height="564.50299"
   viewBox="0 0 638.15558 564.50299"
   sodipodi:docname="construction.svg"
   inkscape:version="1.2.1 (9c6d41e410, 2022-07-14)"
   xmlns:inkscape="http://www.inkscape.org/namespaces/inkscape"
   xmlns:sodipodi="http://sodipodi.sourceforge.net/DTD/sodipodi-0.dtd"
   xmlns="http://www.w3.org/2000/svg"
   xmlns:svg="http://www.w3.org/2000/svg">
  <defs
     id="defs6" />
  <sodipodi:namedview
     id="namedview4"
     pagecolor="#ffffff"
     bordercolor="#000000"
     borderopacity="0.25"
     inkscape:showpageshadow="2"
     inkscape:pageopacity="0.0"
     inkscape:pagecheckerboard="0"
     inkscape:deskcolor="#d1d1d1"
     showgrid="false"
     inkscape:zoom="1.0878566"
     inkscape:cx="82.731493"
     inkscape:cy="444.91159"
     inkscape:window-width="3440"
     inkscape:window-height="1371"
     inkscape:window-x="1920"
     inkscape:window-y="32"
     inkscape:window-maximized="1"
     inkscape:current-layer="g8" />
  <g
     inkscape:groupmode="layer"
     inkscape:label="Image"
     id="g8"
     transform="translate(-18.738705,-47.125)">
    <path
       style="fill:#000000"
       d="m 382.28643,334.73518 c -1.65,-0.80998 -10.65,-8.17587 -20,-16.36864 -9.35,-8.19277 -17.1463,-14.3714 -17.3251,-13.73029 -0.4135,1.48244 -10.2031,9.26575 -13.6021,10.81442 -1.415,0.64474 -2.5728,1.50514 -2.5728,1.912 0,1.30184 -10.21354,3.24258 -16.61407,3.15695 -3.40597,-0.0456 -8.48615,-0.76394 -11.2893,-1.59638 -2.80315,-0.83245 -5.09663,-1.34045 -5.09663,-1.12888 0,1.31505 -22.35842,-11.00803 -26.28921,-14.48959 -4.38704,-3.88567 -4.93303,-4.11172 -6.50183,-2.69198 -5.55554,5.0277 -12.2659,3.5834 -14.24831,-3.06671 -1.16195,-3.89784 -0.0966,-7.39858 4.82201,-15.84469 5.71781,-9.81853 15.44474,-16.37669 24.56098,-16.55967 l 4.51182,-0.0906 -2.90261,-2.44238 c -6.1044,-5.13648 -10.6604,-14.30684 -7.10791,-14.30684 0.49924,0 3.10086,2.37677 5.78138,5.28172 5.63241,6.10396 12.16388,10.71241 17.87368,12.61123 9.62954,3.20234 18.46229,7.64623 18.48093,9.29803 0.0105,0.93004 -0.41554,1.95959 -0.94673,2.28788 -1.19814,0.7405 -10.55263,-1.89189 -18.53193,-5.21494 -10.54925,-4.39335 -24.17852,-2.80595 -31.23346,3.63774 -3.72414,3.40148 -9.89635,12.76614 -10.80791,16.3981 -0.92415,3.68211 0.30937,6.70024 2.73841,6.70024 1.13549,0 3.54805,-1.57298 5.36123,-3.49551 l 3.29668,-3.49551 3.32139,2.74311 c 1.82677,1.5087 4.44639,3.78758 5.82139,5.06417 4.34644,4.03537 23.95643,13.05791 32.32161,14.87115 6.48407,1.40549 8.76046,1.49849 13.31174,0.54385 9.05665,-1.89965 20.36535,-11.18793 26.45835,-21.73126 5.3514,-9.25996 3.1317,-20.85904 -6.2103,-32.45233 -4.8045,-5.96227 -6.0552,-9.04767 -3.6677,-9.04767 2.1785,0 10.6133,10.2094 13.9881,16.93099 2.9087,5.79316 3.2982,7.51387 3.2982,14.56901 0,6.938 -0.3672,8.62473 -2.7664,12.70604 -2.6779,4.55552 -2.7044,4.73923 -0.828,5.74345 1.0662,0.57058 2.536,1.61193 3.2664,2.31412 3.3158,3.18779 17.7466,15.48536 20.813,17.73639 1.8731,1.375 4.8396,3.7375 6.5923,5.25 4.42,3.81424 8.499,3.6033 15.8326,-0.81873 5.8954,-3.55485 7.1757,-4.58078 17.2541,-13.82633 8.4588,-7.75977 6.6178,-12.25648 -3.3182,-8.10494 -5.2516,2.19424 -9.0751,1.89896 -11.6436,-0.89921 -1.2112,-1.31956 -4.5692,-6.38206 -7.4623,-11.25 -2.893,-4.86793 -7.168,-11.17683 -9.5,-14.01976 -8.5682,-10.44569 -20.1685,-23.92207 -23.4091,-27.19508 -1.8319,-1.85022 -3.3308,-3.6973 -3.3308,-4.10461 0,-0.40732 3.7125,-8.16287 8.25,-17.23456 4.5375,-9.07169 8.7954,-17.79961 9.462,-19.39538 13.6068,-32.57398 20.288,-50.64998 20.288,-54.88945 0,-3.88242 -1.5105,-5.49189 -2.3045,-2.45554 -0.3934,1.50441 -1.1942,1.94523 -3.0759,1.69324 -1.3992,-0.18738 -2.8309,-0.6276 -3.1816,-0.97827 -0.3506,-0.35067 -1.6607,-0.17139 -2.9113,0.3984 -1.607,0.73223 -2.8972,0.7023 -4.4002,-0.10208 -2.5163,-1.34668 -2.6149,-2.03972 -0.6583,-4.62657 1.8356,-2.42687 1.9028,-3.44113 0.228,-3.44113 -1.8222,0 -6.644,5.33461 -11.7505,13 -6.2252,9.34477 -18.1346,25.44196 -19.1127,25.83333 -0.4581,0.18334 -0.8355,2.88334 -0.8386,6 -0.01,10.04242 -3.3905,18.92693 -10.1041,26.55392 -4.2681,4.84881 -4.2765,4.85263 -9.3311,4.25649 -8.86556,-1.04559 -9.89094,-1.56632 -18.5471,-9.41884 -4.1731,-3.78567 -13.0121,-15.79619 -13.0121,-17.68097 0,-0.61273 -5.35974,-9.09967 -12.90979,-20.44213 -3.07461,-4.61901 -6.04502,-9.11901 -6.6009,-10 -5.21769,-8.26931 -8.72271,-13.06371 -11.35994,-15.53889 l -3.12937,-2.93709 v 2.57046 c 0,2.97974 -3.4335,4.44876 -5.94796,2.54484 -0.85362,-0.64635 -1.23597,-0.79895 -0.84966,-0.3391 0.79888,0.95094 -0.90853,2.90957 -3.33738,3.82842 -1.36436,0.51614 -1.49471,1.36947 -0.78751,5.15497 2.6437,14.15104 9.26399,34.24894 15.77221,47.88134 10.35787,21.69605 11.29806,23.9058 10.76376,25.29818 -0.30288,0.78929 -0.90231,1.42929 -1.33208,1.42222 -1.34988,-0.0222 -8.67025,-12.12568 -12.69335,-20.98715 -2.12244,-4.675 -4.42672,-9.625 -5.12062,-11 -3.63826,-7.20944 -12.46741,-41.18714 -12.46741,-47.97901 0,-2.91619 4.72213,-10.81307 6.81822,-11.4022 8.19586,-2.30355 13.35572,-1.40331 17.36011,3.02883 0.92048,1.01881 7.66942,11.3291 14.99763,22.91175 19.61159,30.99718 22.03025,34.50342 27.20831,39.44292 9.8632,9.40877 16.95367,11.43911 21.81863,6.24771 3.7492,-4.00083 6.4274,-10.10235 6.6938,-15.25 0.128,-2.475 0.3161,-5.39918 0.418,-6.49818 0.1668,-1.79846 -0.7271,-2.10195 -8.9429,-3.03652 -9.69787,-1.10314 -16.6563,-4.3569 -18.19123,-8.5062 -0.66569,-1.79955 -1.23554,-1.60112 -7.53185,2.62275 -3.76444,2.52536 -7.46478,4.31898 -8.27159,4.00937 -5.49235,-2.10761 18.80073,-16.71988 30.15563,-18.13858 8.09934,-1.01195 11.62634,0.97979 14.64894,8.27253 2.1088,5.08789 2.3246,5.29599 3.2283,3.11357 0.5326,-1.28631 2.3917,-4.13874 4.1314,-6.33874 1.7397,-2.2 6.5335,-9.175 10.6528,-15.5 4.1193,-6.325 8.7362,-12.72657 10.2598,-14.22571 3.206,-3.15453 8.9966,-4.5985 11.6916,-2.91544 1.005,0.62763 3.2057,1.14115 4.8904,1.14115 2.1109,0 4.091,1.01029 6.3696,3.25 6.4861,6.37549 6.7463,9.3733 1.9519,22.49376 -1.3578,3.71593 -3.3671,9.45624 -4.4651,12.75624 -1.0979,3.3 -2.6479,7.41801 -3.4443,9.15113 -0.7965,1.73312 -1.4481,3.41075 -1.4481,3.72807 0,0.31731 -1.5687,3.92759 -3.486,8.02284 -1.9174,4.09524 -4.1937,9.53015 -5.0586,12.07756 -0.8649,2.54742 -3.863,8.76913 -6.6624,13.82603 -2.7995,5.05691 -6.2019,11.21937 -7.561,13.69437 l -2.471,4.5 7.4318,7.5 c 10.9516,11.05208 19.9157,22.3593 27.8227,35.0955 3.8615,6.21995 7.5307,11.62405 8.1538,12.00911 0.623,0.38505 2.9214,0.069 5.1075,-0.70225 2.186,-0.7713 5.9327,-1.40236 8.3259,-1.40236 3.4981,0 4.6617,0.47393 5.9351,2.41731 3.9754,6.06733 -2.8802,15.69827 -18.4992,25.98813 -11.4042,7.51312 -16.8982,9.30577 -21.5386,7.02784 z m -44.5,-149.9654 c 0,-2.92373 -2.8421,-8.31299 -4.9902,-9.46264 -3.5672,-1.90908 -17.35036,0.94369 -16.40921,3.39629 0.27062,0.70524 2.2712,2.28219 4.44573,3.50435 3.24516,1.82388 3.95368,1.94812 3.95368,0.69329 0,-0.84084 0.97688,-2.05161 2.17083,-2.6906 1.79897,-0.96276 2.39857,-0.85039 3.49997,0.65595 0.7311,0.99976 1.3292,2.37543 1.3292,3.05706 0,1.06796 0.9002,1.45241 5.25,2.24224 0.4125,0.0749 0.75,-0.55327 0.75,-1.39594 z"
       id="path239"
       sodipodi:nodetypes="ssssssssssssscssssssssssscssssssssssssssssssssssscsssssssssssssssssscssssssssssssssssssssssssssssssssssssssscssssssssssssssssss" />
    <g
       id="g1479"
       style="fill:none;stroke:#1d85e0;stroke-opacity:1">
      <path
         style="fill:none;fill-opacity:1;stroke:#1d85e0;stroke-width:3.2;stroke-linecap:round;stroke-dasharray:none;stroke-opacity:1"
         d="M 27.70625,372.04375 C 48.16968,359.78928 63.29375,344.6625 101.4,348.96875"
         id="path1224"
         sodipodi:nodetypes="cc" />
      <path
         style="fill:none;fill-opacity:1;stroke:#1d85e0;stroke-width:3.2;stroke-linecap:round;stroke-dasharray:none;stroke-opacity:1"
         d="m 577.07215,359.18237 c 15.58118,-3.46757 31.81476,-8.84493 56.26443,13.95128"
         id="path1224-6"
         sodipodi:nodetypes="cc" />
      <path
         style="fill:none;fill-opacity:1;stroke:#1d85e0;stroke-width:3.2;stroke-linecap:round;stroke-dasharray:none;stroke-opacity:1"
         d="m 27.015625,410.5977 c 14.38125,-12.59375 37.2125,-28.03125 74.506255,-22.75 m 460.25575,8.19091 c 35.54912,-5.43152 57.1871,-0.38589 70.82931,23.90137"
         id="path1224-3"
         sodipodi:nodetypes="cccc" />
      <path
         style="fill:none;fill-opacity:1;stroke:#1d85e0;stroke-width:3.2;stroke-linecap:round;stroke-dasharray:none;stroke-opacity:1"
         d="M 178.2625,269.2625 225.875,288.275"
         id="path1447" />
      <path
         style="fill:none;fill-opacity:1;stroke:#1d85e0;stroke-width:3.2;stroke-linecap:round;stroke-dasharray:none;stroke-opacity:1"
         d="m 202.475,321.5875 11.375,1.95"
         id="path1449" />
      <path
         style="fill:none;fill-opacity:1;stroke:#1d85e0;stroke-width:3.2;stroke-linecap:round;stroke-dasharray:none;stroke-opacity:1"
         d="m 425.9125,286.325 37.7,-26.4875"
         id="path1451" />
      <path
         style="fill:none;fill-opacity:1;stroke:#1d85e0;stroke-width:3.2;stroke-linecap:round;stroke-dasharray:none;stroke-opacity:1"
         d="m 445.4125,313.625 13.325,-3.9"
         id="path1453" />
      <path
         style="fill:none;fill-opacity:1;stroke:#1d85e0;stroke-width:3.2;stroke-linecap:round;stroke-dasharray:none;stroke-opacity:1"
         d="m 299.67185,150.52536 -6.43467,-15.85687"
         id="path1455" />
      <path
         style="fill:none;fill-opacity:1;stroke:#1d85e0;stroke-width:3.2;stroke-linecap:round;stroke-dasharray:none;stroke-opacity:1"
         d="m 324.4913,130.07229 c 0,0 0.45962,8.96258 -1.60867,17.23573"
         id="path1459" />
      <path
         style="fill:none;fill-opacity:1;stroke:#1d85e0;stroke-width:3.2;stroke-linecap:round;stroke-dasharray:none;stroke-opacity:1"
         d="m 355.05599,133.51944 c 0,0 0.22981,6.20486 -5.28562,17.69535"
         id="path1461" />
      <path
         style="fill:none;fill-opacity:1;stroke:#1d85e0;stroke-width:3.2;stroke-linecap:round;stroke-dasharray:none;stroke-opacity:1"
         d="m 171.66785,188.21415 c 11.26067,0.68943 29.99395,7.30519 31.94355,22.52135 1.32016,10.30356 3.36589,18.96268 -2.19017,21.81798 -5.01088,2.57513 -7.83442,-1.55412 -8.15127,-6.19092 -0.36682,-5.36808 2.06829,-11.7203 11.03087,-14.01839 8.96258,-2.2981 13.09915,-0.45962 16.5463,4.36638 3.44714,4.826 8.50295,13.09915 11.26067,36.53974"
         id="path1463"
         sodipodi:nodetypes="csssssc" />
      <path
         style="fill:none;fill-opacity:1;stroke:#1d85e0;stroke-width:3.2;stroke-linecap:round;stroke-dasharray:none;stroke-opacity:1"
         d="m 382.40335,244.74733 c 4.59619,-7.35391 14.93763,-13.78858 24.13002,-12.86934 9.19238,0.91924 14.47801,5.97505 13.09915,11.03087 -1.37886,5.05581 -5.97505,6.89429 -11.26068,5.05581 -5.28562,-1.83848 -11.72029,-8.27315 -9.42219,-20.22325 2.29809,-11.95011 13.78858,-16.77611 17.69534,-16.77611 3.90677,0 13.32897,2.75771 13.78859,9.4222 0.45962,6.66448 -4.36639,13.32896 -9.88182,11.49048 -5.51543,-1.83848 -12.08439,-9.33205 -5.97505,-25.9685 5.78796,-15.76128 21.36034,-19.72181 37.68879,-18.38477 9.61436,0.78726 11.9501,3.21733 11.9501,3.21733"
         id="path1465"
         sodipodi:nodetypes="csssssssssc" />
    </g>
    <path
       style="fill:#000000;fill-opacity:1;stroke:#000000;stroke-width:3.2;stroke-linecap:round;stroke-dasharray:none;stroke-opacity:1"
       d="m 324.11786,198.21087 c -0.74688,3.0737 -0.86178,3.10243 -0.86178,3.10243 l -0.0862,0.0287"
       id="path1535" />
    <path
       style="fill:#000000;fill-opacity:1;stroke:#000000;stroke-width:3.2;stroke-linecap:round;stroke-dasharray:none;stroke-opacity:1"
       d="m 332.73573,201.08349 -0.91924,2.67154 -0.13875,0.54005"
       id="path1537"
       sodipodi:nodetypes="ccc" />
    <path
       style="fill:#000000;fill-opacity:1;stroke:#000000;stroke-width:3.2;stroke-linecap:round;stroke-dasharray:none;stroke-opacity:1"
       d="m 315.72981,203.43904 c 0.60325,1.26395 2.15446,4.85473 4.02167,6.69321"
       id="path1539" />
    <g
       id="g2583"
       transform="translate(750.75,25.35)"
       style="fill:#333333">
      <rect
         style="fill:#333333;fill-opacity:1;stroke:none;stroke-width:3.19591;stroke-linecap:round;stroke-dasharray:none;stroke-opacity:1"
         id="rect1593"
         width="539.5"
         height="39.650002"
         x="-686.72498"
         y="21.775"
         ry="19.825001" />
      <rect
         style="fill:#333333;fill-opacity:1;stroke:none;stroke-width:2.25985;stroke-linecap:round;stroke-dasharray:none;stroke-opacity:1"
         id="rect1647"
         width="539.5"
         height="19.825001"
         x="-686.72498"
         y="41.600002"
         ry="0" />
      <rect
         style="fill:#333333;fill-opacity:1;stroke:none;stroke-width:1.31512;stroke-linecap:round;stroke-dasharray:none;stroke-opacity:1"
         id="rect1649"
         width="4.2250128"
         height="342.6315"
         x="-686.72498"
         y="61.425003"
         ry="0" />
      <rect
         style="fill:#333333;fill-opacity:1;stroke:none;stroke-width:1.25828;stroke-linecap:round;stroke-dasharray:none;stroke-opacity:1"
         id="rect1651"
         width="3.8417931"
         height="344.94391"
         x="-151.06679"
         y="61.425003"
         ry="0" />
      <rect
         style="fill:#333333;fill-opacity:1;stroke:none;stroke-width:1.52639;stroke-linecap:round;stroke-dasharray:none;stroke-opacity:1"
         id="rect1653"
         width="3.8410692"
         height="507.69785"
         x="-420.55005"
         y="-671.41699"
         ry="0"
         transform="rotate(-90)" />
      <path
         id="path1659"
         style="fill:#333333;fill-opacity:1;stroke:none;stroke-width:3.2;stroke-linecap:round;stroke-dasharray:none;stroke-opacity:1"
         d="m -686.67188,404.05664 v 5.57813 c 0,6.04741 4.86859,10.91601 10.91602,10.91601 h 6.98633 v -3.8418 h -5.29492 c -0.14511,0 -0.29034,-0.003 -0.4336,-0.01 -0.14326,-0.007 -0.28455,-0.019 -0.42578,-0.0332 -0.14123,-0.0143 -0.28284,-0.0316 -0.42187,-0.0527 -0.13903,-0.0211 -0.27545,-0.0464 -0.41211,-0.0742 -0.13665,-0.0278 -0.27214,-0.0595 -0.40625,-0.0937 -0.13411,-0.0343 -0.26705,-0.0706 -0.39844,-0.11133 -0.13139,-0.0407 -0.26213,-0.0859 -0.39062,-0.13281 -0.1285,-0.0469 -0.25543,-0.0956 -0.38086,-0.14844 -0.12543,-0.0529 -0.24891,-0.10925 -0.3711,-0.16796 -0.1222,-0.0587 -0.24255,-0.11923 -0.36133,-0.1836 -0.11879,-0.0644 -0.23636,-0.13327 -0.35156,-0.20312 -0.1152,-0.0699 -0.22839,-0.14163 -0.33984,-0.2168 -0.11144,-0.0752 -0.22062,-0.15212 -0.32813,-0.23242 -0.10752,-0.0803 -0.21299,-0.16473 -0.3164,-0.25 -0.10341,-0.0853 -0.20555,-0.17165 -0.30469,-0.26172 -0.0991,-0.0901 -0.19633,-0.18266 -0.29102,-0.27734 -0.0947,-0.0947 -0.18729,-0.19188 -0.27734,-0.29102 -0.0901,-0.0991 -0.17645,-0.20127 -0.26172,-0.30469 -0.0853,-0.10341 -0.1697,-0.20889 -0.25,-0.3164 -0.0803,-0.10752 -0.15725,-0.21668 -0.23242,-0.32813 -0.0752,-0.11144 -0.14695,-0.22464 -0.2168,-0.33984 -0.0699,-0.1152 -0.13681,-0.23278 -0.20117,-0.35157 -0.0644,-0.11876 -0.12684,-0.23913 -0.18555,-0.36132 -0.0587,-0.1222 -0.11509,-0.24566 -0.16797,-0.3711 -0.0529,-0.12543 -0.10155,-0.25236 -0.14843,-0.38086 -0.0469,-0.12849 -0.0921,-0.25923 -0.13282,-0.39062 -0.0407,-0.13139 -0.077,-0.26238 -0.11132,-0.39649 -0.0343,-0.13411 -0.0661,-0.26959 -0.0937,-0.40625 -0.0278,-0.13665 -0.0531,-0.27503 -0.0742,-0.41406 -0.0211,-0.13903 -0.0385,-0.27869 -0.0527,-0.41992 -0.0143,-0.14123 -0.024,-0.28448 -0.0312,-0.42773 -0.007,-0.14326 -0.0117,-0.28653 -0.0117,-0.43165 v -4.27148 z"
         sodipodi:nodetypes="cssccssssssssssssssssssssssssssssssscscc" />
      <path
         id="path1724"
         style="fill:#333333;fill-opacity:1;stroke:none;stroke-width:3.2;stroke-linecap:round;stroke-dasharray:none;stroke-opacity:1"
         d="m -163.71915,420.55005 h 5.57813 c 6.04741,0 10.91601,-4.86859 10.91601,-10.91602 v -6.98633 h -3.8418 v 5.29492 c 0,0.14511 -0.003,0.29034 -0.01,0.4336 -0.007,0.14326 -0.019,0.28455 -0.0332,0.42578 -0.0143,0.14123 -0.0316,0.28284 -0.0527,0.42187 -0.0211,0.13903 -0.0464,0.27545 -0.0742,0.41211 -0.0278,0.13665 -0.0595,0.27214 -0.0937,0.40625 -0.0343,0.13411 -0.0706,0.26705 -0.11133,0.39844 -0.0407,0.13139 -0.0859,0.26213 -0.13281,0.39062 -0.0469,0.1285 -0.0956,0.25543 -0.14844,0.38086 -0.0529,0.12543 -0.10925,0.24891 -0.16796,0.3711 -0.0587,0.1222 -0.11923,0.24255 -0.1836,0.36133 -0.0644,0.11879 -0.13327,0.23636 -0.20312,0.35156 -0.0699,0.1152 -0.14163,0.22839 -0.2168,0.33984 -0.0752,0.11144 -0.15212,0.22062 -0.23242,0.32813 -0.0803,0.10752 -0.16473,0.21299 -0.25,0.3164 -0.0853,0.10341 -0.17165,0.20555 -0.26172,0.30469 -0.0901,0.0991 -0.18266,0.19633 -0.27734,0.29102 -0.0947,0.0947 -0.19188,0.18729 -0.29102,0.27734 -0.0991,0.0901 -0.20127,0.17645 -0.30469,0.26172 -0.10341,0.0853 -0.20889,0.1697 -0.3164,0.25 -0.10752,0.0803 -0.21668,0.15725 -0.32813,0.23242 -0.11144,0.0752 -0.22464,0.14695 -0.33984,0.2168 -0.1152,0.0699 -0.23278,0.13681 -0.35157,0.20117 -0.11876,0.0644 -0.23913,0.12684 -0.36132,0.18555 -0.1222,0.0587 -0.24566,0.11509 -0.3711,0.16797 -0.12543,0.0529 -0.25236,0.10155 -0.38086,0.14843 -0.12849,0.0469 -0.25923,0.0921 -0.39062,0.13282 -0.13139,0.0407 -0.26238,0.077 -0.39649,0.11132 -0.13411,0.0343 -0.26959,0.0661 -0.40625,0.0937 -0.13665,0.0278 -0.27503,0.0531 -0.41406,0.0742 -0.13903,0.0211 -0.27869,0.0385 -0.41992,0.0527 -0.14123,0.0143 -0.28448,0.024 -0.42773,0.0312 -0.14326,0.007 -0.28653,0.0117 -0.43165,0.0117 l -4.27135,0.38372 z"
         sodipodi:nodetypes="cssccssssssssssssssssssssssssssssssscscc" />
    </g>
    <circle
       style="fill:#00ffff;fill-opacity:1;stroke:none;stroke-width:2.32004;stroke-linecap:round;stroke-dasharray:none;stroke-opacity:1"
       id="path2637"
       cx="102.6432"
       cy="66.950005"
       r="5.2483783" />
    <circle
       style="fill:#ff5555;fill-opacity:1;stroke:none;stroke-width:2.32004;stroke-linecap:round;stroke-dasharray:none;stroke-opacity:1"
       id="circle3057"
       cx="127.22133"
       cy="66.950005"
       r="5.2483783" />
    <circle
       style="fill:#ffdd55;fill-opacity:1;stroke:none;stroke-width:2.32004;stroke-linecap:round;stroke-dasharray:none;stroke-opacity:1"
       id="circle3059"
       cx="151.79945"
       cy="66.950005"
       r="5.2483783" />
    <g
       id="g3340">
      <g
         id="g3229"
         style="fill:#f6b912;fill-opacity:1"
         transform="translate(749.17964,32.173358)">
        <rect
           style="fill:#f6b912;fill-opacity:1;stroke:none;stroke-width:3.2;stroke-linecap:round;stroke-dasharray:none;stroke-opacity:1"
           id="rect3113"
           width="76.756439"
           height="263.36191"
           x="-456.40207"
           y="302.42957" />
        <rect
           style="fill:#f6b912;fill-opacity:1;stroke:none;stroke-width:3.2;stroke-linecap:round;stroke-dasharray:none;stroke-opacity:1"
           id="rect3167"
           width="76.756439"
           height="263.36191"
           x="128.56059"
           y="447.39359"
           transform="rotate(60)" />
        <rect
           style="fill:#f6b912;fill-opacity:1;stroke:none;stroke-width:3.2;stroke-linecap:round;stroke-dasharray:none;stroke-opacity:1"
           id="rect3169"
           width="76.756439"
           height="263.36191"
           x="546.58447"
           y="13.283063"
           transform="rotate(120)" />
      </g>
      <g
         id="g3305"
         transform="translate(749.17964,32.173358)">
        <circle
           style="fill:#f6b912;fill-opacity:1;stroke:none;stroke-width:3.2;stroke-linecap:round;stroke-dasharray:none;stroke-opacity:1"
           id="path3283"
           cx="-416.41519"
           cy="431.58264"
           r="108.9298" />
        <circle
           style="fill:#2a1919;fill-opacity:0.849802;stroke:none;stroke-width:1.82517;stroke-linecap:round;stroke-dasharray:none;stroke-opacity:1"
           id="circle3291"
           cx="-416.41519"
           cy="431.58264"
           r="62.129803" />
      </g>
    </g>
    <g
       id="g3301"
       transform="translate(749.17964,32.173358)">
      <g
         id="g3219"
         style="fill:#e86113;fill-opacity:1">
        <rect
           style="fill:#e86113;fill-opacity:1;stroke:none;stroke-width:2.09424;stroke-linecap:round;stroke-dasharray:none;stroke-opacity:1"
           id="rect3113-7"
           width="50.233269"
           height="172.35727"
           x="-782.47644"
           y="191.1322"
           transform="rotate(-17.274927)" />
        <rect
           style="fill:#e86113;fill-opacity:1;stroke:none;stroke-width:2.09424;stroke-linecap:round;stroke-dasharray:none;stroke-opacity:1"
           id="rect3167-5"
           width="50.233269"
           height="172.35727"
           x="-163.63828"
           y="708.36957"
           transform="rotate(42.725073)" />
        <rect
           style="fill:#e86113;fill-opacity:1;stroke:none;stroke-width:2.09424;stroke-linecap:round;stroke-dasharray:none;stroke-opacity:1"
           id="rect3169-3"
           width="50.233269"
           height="172.35727"
           x="593.7215"
           y="431.05875"
           transform="rotate(102.72507)" />
      </g>
      <circle
         style="fill:#e86113;fill-opacity:1;stroke:none;stroke-width:2.04672;stroke-linecap:round;stroke-dasharray:none;stroke-opacity:1"
         id="circle3285"
         cx="-641.07538"
         cy="488.9306"
         r="69.671448" />
      <circle
         style="fill:#2a1919;fill-opacity:0.85098;stroke:none;stroke-width:1.05379;stroke-linecap:round;stroke-dasharray:none;stroke-opacity:1"
         id="circle3289"
         cx="-641.07538"
         cy="488.9306"
         r="35.871449" />
    </g>
    <g
       id="g3365">
      <g
         id="g3224"
         style="fill:#9a9ad5;fill-opacity:1"
         transform="translate(749.17964,32.173358)">
        <rect
           style="fill:#9a9ad5;fill-opacity:1;stroke:none;stroke-width:2.09424;stroke-linecap:round;stroke-dasharray:none;stroke-opacity:1"
           id="rect3210"
           width="50.233269"
           height="172.35727"
           x="-164.84749"
           y="410.13632"
           transform="rotate(4.8225961)" />
        <rect
           style="fill:#9a9ad5;fill-opacity:1;stroke:none;stroke-width:2.09424;stroke-linecap:round;stroke-dasharray:none;stroke-opacity:1"
           id="rect3212"
           width="50.233269"
           height="172.35727"
           x="334.83929"
           y="282.98926"
           transform="rotate(64.822596)" />
        <rect
           style="fill:#9a9ad5;fill-opacity:1;stroke:none;stroke-width:2.09424;stroke-linecap:round;stroke-dasharray:none;stroke-opacity:1"
           id="rect3214"
           width="50.233269"
           height="172.35727"
           x="474.57016"
           y="-213.32568"
           transform="rotate(124.82259)" />
      </g>
      <g
         id="g3309"
         transform="translate(749.17964,32.173358)">
        <circle
           style="fill:#9a9ad5;fill-opacity:1;stroke:none;stroke-width:2.04672;stroke-linecap:round;stroke-dasharray:none;stroke-opacity:1"
           id="circle3287"
           cx="-184.67331"
           cy="483.41516"
           r="69.671448" />
        <circle
           style="fill:#2a1919;fill-opacity:0.85098;stroke:none;stroke-width:0.881932;stroke-linecap:round;stroke-dasharray:none;stroke-opacity:1"
           id="circle3293"
           cx="-184.67331"
           cy="483.41516"
           r="30.021448" />
      </g>
    </g>
  </g>
</svg>
